<svg width="512" height="512" viewBox="0 0 512 512" fill="none" xmlns="http://www.w3.org/2000/svg">
<path d="M463.518 94.9091H193.885V84.5391C193.885 61.6311 175.311 43.0571 152.403 43.0571H48.699C25.791 43.0571 7.21698 61.6311 7.21698 84.5391V136.391V208.984V426.764C7.21698 449.671 25.791 468.246 48.699 468.246H463.518C486.426 468.246 505 449.671 505 426.764V136.391C505 113.483 486.426 94.9091 463.518 94.9091ZM27.958 84.5391C27.958 73.1041 37.266 63.7981 48.699 63.7981H152.404C163.837 63.7981 173.145 73.1041 173.145 84.5391V94.9091V115.65H193.886H463.519C474.952 115.65 484.26 124.956 484.26 136.391V157.132H27.958V136.391V84.5391ZM463.518 447.506H48.699C37.266 447.506 27.958 438.199 27.958 426.765V208.985V177.874H484.259V426.766C484.259 438.198 474.952 447.506 463.518 447.506Z" fill="white"/>
</svg>
