<svg width="512" height="512" viewBox="0 0 512 512" fill="none" xmlns="http://www.w3.org/2000/svg">
<path d="M48.482 94.9091H318.115V84.5391C318.115 61.6311 336.689 43.0571 359.597 43.0571H463.301C486.209 43.0571 504.783 61.6311 504.783 84.5391V136.391V208.984V426.764C504.783 449.671 486.209 468.246 463.301 468.246H48.482C25.574 468.246 7 449.671 7 426.764V136.391C7 113.483 25.574 94.9091 48.482 94.9091ZM484.042 84.5391C484.042 73.1041 474.734 63.7981 463.301 63.7981H359.596C348.163 63.7981 338.855 73.1041 338.855 84.5391V94.9091V115.65H318.114H48.481C37.048 115.65 27.74 124.956 27.74 136.391V157.132H484.042V136.391V84.5391ZM48.482 447.506H463.301C474.734 447.506 484.042 438.199 484.042 426.765V208.985V177.874H27.741V426.766C27.741 438.198 37.048 447.506 48.482 447.506Z" fill="white"/>
</svg>
