<svg width="512" height="512" viewBox="0 0 512 512" fill="none" xmlns="http://www.w3.org/2000/svg">
<path d="M51.326 185.85H141.337V456.722H51.326V185.85ZM96.934 55.2778C66.127 55.2778 46 75.5028 46 102.049C46 128.049 65.538 148.862 95.756 148.862H96.33C127.726 148.862 147.278 128.048 147.278 102.049C146.689 75.5028 127.727 55.2778 96.934 55.2778ZM362.339 179.487C314.56 179.487 293.155 205.767 281.214 224.197V185.85H191.176C192.368 211.261 191.176 456.722 191.176 456.722H281.214V305.448C281.214 297.346 281.803 289.274 284.172 283.47C290.691 267.296 305.505 250.547 330.354 250.547C362.956 250.547 375.976 275.398 375.976 311.795V456.721H466V301.398C466 218.199 421.598 179.487 362.339 179.487Z" fill="white"/>
</svg>
