<svg width="362" height="130" viewBox="0 0 362 130" fill="none" xmlns="http://www.w3.org/2000/svg">
<path d="M32.67 51.06C36.45 51.78 39.6 53.64 42.12 56.64C44.64 59.58 45.9 63.06 45.9 67.08C45.9 72.06 44.19 76.14 40.77 79.32C37.35 82.44 32.37 84 25.83 84H7.65V20.64H25.83C32.13 20.64 36.81 22.08 39.87 24.96C42.93 27.78 44.46 31.5 44.46 36.12C44.46 40.32 43.32 43.68 41.04 46.2C38.82 48.72 36.03 50.34 32.67 51.06ZM9.45 50.16H26.37C31.65 50.16 35.67 48.93 38.43 46.47C41.25 43.95 42.66 40.5 42.66 36.12C42.66 31.92 41.28 28.59 38.52 26.13C35.76 23.67 31.53 22.44 25.83 22.44H9.45V50.16ZM25.83 82.2C31.59 82.2 36.06 80.85 39.24 78.15C42.48 75.45 44.1 71.76 44.1 67.08C44.1 62.46 42.45 58.8 39.15 56.1C35.85 53.34 31.35 51.96 25.65 51.96H9.45V82.2H25.83ZM86.0013 84.72C80.1813 84.72 74.9613 83.37 70.3413 80.67C65.7813 77.91 62.2113 74.07 59.6313 69.15C57.0513 64.23 55.7613 58.65 55.7613 52.41C55.7613 46.17 57.0513 40.59 59.6313 35.67C62.2113 30.75 65.7813 26.94 70.3413 24.24C74.9613 21.48 80.1813 20.1 86.0013 20.1C91.8213 20.1 97.0113 21.48 101.571 24.24C106.191 26.94 109.791 30.75 112.371 35.67C114.951 40.59 116.241 46.17 116.241 52.41C116.241 58.65 114.951 64.23 112.371 69.15C109.791 74.07 106.191 77.91 101.571 80.67C97.0113 83.37 91.8213 84.72 86.0013 84.72ZM86.0013 83.1C91.2813 83.1 96.0813 81.87 100.401 79.41C104.721 76.89 108.111 73.32 110.571 68.7C113.091 64.02 114.351 58.59 114.351 52.41C114.351 46.23 113.091 40.83 110.571 36.21C108.111 31.53 104.721 27.96 100.401 25.5C96.0813 22.98 91.2813 21.72 86.0013 21.72C80.7213 21.72 75.9213 22.98 71.6013 25.5C67.2813 27.96 63.8613 31.53 61.3413 36.21C58.8813 40.83 57.6513 46.23 57.6513 52.41C57.6513 58.59 58.8813 64.02 61.3413 68.7C63.8613 73.32 67.2813 76.89 71.6013 79.41C75.9213 81.87 80.7213 83.1 86.0013 83.1ZM172.401 20.64V84H170.601V52.23H131.091V84H129.291V20.64H131.091V50.61H170.601V20.64H172.401ZM204.476 20.64C215.396 20.64 223.706 23.4 229.406 28.92C235.106 34.44 237.956 42.24 237.956 52.32C237.956 62.4 235.106 70.2 229.406 75.72C223.706 81.24 215.396 84 204.476 84H187.826V20.64H204.476ZM204.476 82.38C214.916 82.38 222.806 79.74 228.146 74.46C233.486 69.18 236.156 61.8 236.156 52.32C236.156 42.84 233.486 35.46 228.146 30.18C222.806 24.9 214.916 22.26 204.476 22.26H189.626V82.38H204.476ZM286.119 66.54H254.799L248.139 84H246.069L269.559 22.53H271.359L294.759 84H292.689L286.119 66.54ZM285.489 64.92L270.459 25.41L255.429 64.92H285.489ZM348.002 84H346.202L306.872 23.97V84H305.072V20.73H306.872L346.202 80.67V20.73H348.002V84Z" fill="white"/>
<path d="M122.659 112.049L118.087 106.451V112.049H115.567V99.4851H118.087V105.119L122.659 99.4851H125.701L120.517 105.713L125.845 112.049H122.659ZM146.187 99.4851V107.261C146.187 108.113 146.409 108.767 146.853 109.223C147.297 109.667 147.921 109.889 148.725 109.889C149.541 109.889 150.171 109.667 150.615 109.223C151.059 108.767 151.281 108.113 151.281 107.261V99.4851H153.819V107.243C153.819 108.311 153.585 109.217 153.117 109.961C152.661 110.693 152.043 111.245 151.263 111.617C150.495 111.989 149.637 112.175 148.689 112.175C147.753 112.175 146.901 111.989 146.133 111.617C145.377 111.245 144.777 110.693 144.333 109.961C143.889 109.217 143.667 108.311 143.667 107.243V99.4851H146.187ZM174.973 110.051H179.113V112.049H172.453V99.4851H174.973V110.051ZM196.303 105.749C196.303 104.513 196.579 103.409 197.131 102.437C197.695 101.453 198.457 100.691 199.417 100.151C200.389 99.5991 201.475 99.3231 202.675 99.3231C204.079 99.3231 205.309 99.6831 206.365 100.403C207.421 101.123 208.159 102.119 208.579 103.391H205.681C205.393 102.791 204.985 102.341 204.457 102.041C203.941 101.741 203.341 101.591 202.657 101.591C201.925 101.591 201.271 101.765 200.695 102.113C200.131 102.449 199.687 102.929 199.363 103.553C199.051 104.177 198.895 104.909 198.895 105.749C198.895 106.577 199.051 107.309 199.363 107.945C199.687 108.569 200.131 109.055 200.695 109.403C201.271 109.739 201.925 109.907 202.657 109.907C203.341 109.907 203.941 109.757 204.457 109.457C204.985 109.145 205.393 108.689 205.681 108.089H208.579C208.159 109.373 207.421 110.375 206.365 111.095C205.321 111.803 204.091 112.157 202.675 112.157C201.475 112.157 200.389 111.887 199.417 111.347C198.457 110.795 197.695 110.033 197.131 109.061C196.579 108.089 196.303 106.985 196.303 105.749ZM205.339 97.1811L202.675 98.6391L199.993 97.1811V95.3451L202.675 96.8931L205.339 95.3451V97.1811ZM236.922 99.4851L232.674 107.675V112.049H230.154V107.675L225.888 99.4851H228.732L231.432 105.227L234.114 99.4851H236.922ZM253.963 105.749C253.963 104.513 254.239 103.409 254.791 102.437C255.355 101.453 256.117 100.691 257.077 100.151C258.049 99.5991 259.135 99.3231 260.335 99.3231C261.739 99.3231 262.969 99.6831 264.025 100.403C265.081 101.123 265.819 102.119 266.239 103.391H263.341C263.053 102.791 262.645 102.341 262.117 102.041C261.601 101.741 261.001 101.591 260.317 101.591C259.585 101.591 258.931 101.765 258.355 102.113C257.791 102.449 257.347 102.929 257.023 103.553C256.711 104.177 256.555 104.909 256.555 105.749C256.555 106.577 256.711 107.309 257.023 107.945C257.347 108.569 257.791 109.055 258.355 109.403C258.931 109.739 259.585 109.907 260.317 109.907C261.001 109.907 261.601 109.757 262.117 109.457C262.645 109.145 263.053 108.689 263.341 108.089H266.239C265.819 109.373 265.081 110.375 264.025 111.095C262.981 111.803 261.751 112.157 260.335 112.157C259.135 112.157 258.049 111.887 257.077 111.347C256.117 110.795 255.355 110.033 254.791 109.061C254.239 108.089 253.963 106.985 253.963 105.749ZM291.683 112.049L287.111 106.451V112.049H284.591V99.4851H287.111V105.119L291.683 99.4851H294.725L289.541 105.713L294.869 112.049H291.683ZM322.717 99.4851L318.469 107.675V112.049H315.949V107.675L311.683 99.4851H314.527L317.227 105.227L319.909 99.4851H322.717ZM347.696 99.4851V108.305C347.696 109.529 347.342 110.483 346.634 111.167C345.926 111.839 344.978 112.175 343.79 112.175C342.59 112.175 341.618 111.827 340.874 111.131C340.142 110.435 339.776 109.463 339.776 108.215H342.296C342.308 108.755 342.434 109.175 342.674 109.475C342.926 109.775 343.286 109.925 343.754 109.925C344.21 109.925 344.558 109.781 344.798 109.493C345.038 109.205 345.158 108.809 345.158 108.305V99.4851H347.696Z" fill="white"/>
</svg>
