<svg width="96" height="96" viewBox="0 0 96 96" fill="none" xmlns="http://www.w3.org/2000/svg">
<path d="M88 48C85.791 48 84 49.791 84 52V80C84 82.21 82.21 84 80 84H16C13.79 84 12 82.21 12 80V16C12 13.79 13.79 12 16 12H44C46.209 12 48 10.209 48 8C48 5.791 46.209 4 44 4H16C9.373 4 4 9.373 4 16V80C4 86.627 9.373 92 16 92H80C86.627 92 92 86.627 92 80V52C92 49.791 90.209 48 88 48Z" fill="white"/>
<path d="M91.996 7.958C91.993 7.709 91.97 7.46 91.921 7.216C91.898 7.104 91.856 7 91.824 6.891C91.784 6.749 91.75 6.606 91.693 6.468C91.643 6.346 91.573 6.237 91.511 6.122C91.449 6.007 91.398 5.888 91.324 5.778C91.204 5.599 91.063 5.436 90.917 5.279C90.885 5.244 90.862 5.204 90.828 5.171C90.797 5.14 90.761 5.12 90.728 5.09C90.569 4.94 90.402 4.797 90.219 4.674C90.111 4.602 89.993 4.551 89.88 4.49C89.764 4.428 89.652 4.357 89.53 4.306C89.391 4.248 89.247 4.215 89.103 4.174C88.996 4.143 88.893 4.101 88.782 4.079C88.525 4.027 88.262 4 87.999 4H64C61.791 4 60 5.791 60 8C60 10.209 61.791 12 64 12H78.343L45.573 44.77C44.011 46.332 44.011 48.865 45.573 50.426C47.135 51.988 49.668 51.988 51.229 50.426L84 17.656V32C84 34.209 85.791 36 88 36C90.209 36 92 34.209 92 32V8C92 7.986 91.996 7.973 91.996 7.958Z" fill="white"/>
</svg>
