<svg width="118" height="102" viewBox="0 0 118 102" fill="none" xmlns="http://www.w3.org/2000/svg">
<path d="M11.6554 49.1044C11.6554 21.9848 33.7134 0.000103645 60.9233 0.000103645C88.1332 0.000103645 117.581 7.39557 117.581 34.5151C117.581 61.6346 121.453 90.2832 60.9233 98.2087C33.7134 98.2087 3.91329 108.522 11.6554 49.1044Z" fill="#00FFF0"/>
<path d="M11.6554 49.1044C11.6554 21.9848 33.7134 0.000103645 60.9233 0.000103645C88.1332 0.000103645 117.581 7.39557 117.581 34.5151C117.581 61.6346 121.453 90.2832 60.9233 98.2087C33.7134 98.2087 3.91329 108.522 11.6554 49.1044Z" fill="url(#paint0_linear)"/>
<path d="M11.6554 49.1044C11.6554 21.9848 33.7134 0.000103645 60.9233 0.000103645C88.1332 0.000103645 117.581 7.39557 117.581 34.5151C117.581 61.6346 121.453 90.2832 60.9233 98.2087C33.7134 98.2087 3.91329 108.522 11.6554 49.1044Z" fill="url(#paint1_linear)"/>
<path d="M90.5656 21.8634C90.2895 21.8634 90.0247 21.9731 89.8295 22.1683C89.6343 22.3635 89.5246 22.6283 89.5246 22.9044V37.4782H43.7213V12.4946H79.1148C79.3908 12.4946 79.6556 12.3849 79.8508 12.1897C80.0461 11.9944 80.1557 11.7297 80.1557 11.4536C80.1557 11.1775 80.0461 10.9127 79.8508 10.7175C79.6556 10.5223 79.3908 10.4126 79.1148 10.4126H42.6803C42.4042 10.4126 42.1395 10.5223 41.9442 10.7175C41.749 10.9127 41.6393 11.1775 41.6393 11.4536V43.7241C41.6393 44.0002 41.749 44.2649 41.9442 44.4602C42.1395 44.6554 42.4042 44.7651 42.6803 44.7651H60.2938L57.7954 47.888H53.0902C52.8141 47.888 52.5493 47.9977 52.3541 48.1929C52.1589 48.3881 52.0492 48.6529 52.0492 48.929C52.0492 49.2051 52.1589 49.4699 52.3541 49.6651C52.5493 49.8603 52.8141 49.97 53.0902 49.97H80.1557C80.4318 49.97 80.6966 49.8603 80.8918 49.6651C81.087 49.4699 81.1967 49.2051 81.1967 48.929C81.1967 48.6529 81.087 48.3881 80.8918 48.1929C80.6966 47.9977 80.4318 47.888 80.1557 47.888H75.4505L72.9521 44.7651H90.5656C90.8417 44.7651 91.1064 44.6554 91.3017 44.4602C91.4969 44.2649 91.6066 44.0002 91.6066 43.7241V22.9044C91.6066 22.6283 91.4969 22.3635 91.3017 22.1683C91.1064 21.9731 90.8417 21.8634 90.5656 21.8634ZM72.7856 47.888H60.4603L62.9587 44.7651H70.2872L72.7856 47.888ZM89.5246 42.6831H43.7213V39.5601H89.5246V42.6831Z" fill="#493A65"/>
<path d="M98.8622 6.35279C98.8455 6.27288 98.8174 6.19577 98.7789 6.12377C98.7043 5.97391 98.5933 5.84509 98.4562 5.74901C98.4135 5.71753 98.3682 5.68967 98.3209 5.66574C98.2728 5.63608 98.22 5.61495 98.1647 5.60328L90.8987 3.17778C90.6826 3.1048 90.4485 3.1048 90.2324 3.17778L82.9664 5.60328C82.9111 5.61495 82.8583 5.63608 82.8102 5.66574C82.7629 5.68967 82.7176 5.71753 82.6749 5.74901C82.5378 5.84509 82.4269 5.97391 82.3522 6.12377C82.3137 6.19577 82.2857 6.27288 82.2689 6.35279C82.2476 6.4308 82.2371 6.51135 82.2377 6.59221V16.315C82.2393 16.5327 82.3082 16.7446 82.4349 16.9217C82.5616 17.0987 82.74 17.2322 82.9456 17.3039L90.2324 19.7294L90.3574 19.7607C90.4948 19.7884 90.6363 19.7884 90.7738 19.7607L90.8987 19.7294L98.1856 17.3039C98.3911 17.2322 98.5695 17.0987 98.6962 16.9217C98.823 16.7446 98.8918 16.5327 98.8934 16.315V6.59221C98.894 6.51135 98.8835 6.4308 98.8622 6.35279V6.35279ZM90.5656 5.25975L94.5629 6.59221L90.5656 7.92467L86.5682 6.59221L90.5656 5.25975ZM84.3197 8.03918L89.5246 9.77762V17.3039L84.3197 15.5655V8.03918ZM96.8115 15.5655L91.6065 17.3039V9.77762L96.8115 8.03918V15.5655Z" fill="#493A65"/>
<path d="M80.1766 7.80999C79.9005 7.81138 79.6352 7.70302 79.439 7.50878C79.2428 7.31453 79.1318 7.0503 79.1304 6.77422C79.129 6.49813 79.2374 6.2328 79.4316 6.0366C79.6258 5.84041 79.8901 5.72941 80.1662 5.72803H80.1766C80.4527 5.72803 80.7174 5.8377 80.9127 6.03292C81.1079 6.22815 81.2176 6.49292 81.2176 6.76901C81.2176 7.0451 81.1079 7.30988 80.9127 7.5051C80.7174 7.70032 80.4527 7.80999 80.1766 7.80999Z" fill="#493A65"/>
<path d="M77.0536 7.80999C76.9169 7.81068 76.7814 7.78443 76.6549 7.73275C76.5283 7.68106 76.4132 7.60496 76.316 7.50878C76.2189 7.4126 76.1416 7.29822 76.0887 7.17219C76.0357 7.04615 76.0081 6.91092 76.0074 6.77422C76.0067 6.63751 76.033 6.50201 76.0847 6.37545C76.1364 6.24889 76.2125 6.13375 76.3086 6.0366C76.4048 5.93946 76.5192 5.8622 76.6452 5.80926C76.7713 5.75631 76.9065 5.72871 77.0432 5.72803H77.0536C77.3297 5.72803 77.5945 5.8377 77.7897 6.03292C77.9849 6.22815 78.0946 6.49292 78.0946 6.76901C78.0946 7.0451 77.9849 7.30988 77.7897 7.5051C77.5945 7.70032 77.3297 7.80999 77.0536 7.80999Z" fill="#493A65"/>
<path d="M73.9307 7.80999C73.794 7.81068 73.6585 7.78443 73.5319 7.73275C73.4053 7.68106 73.2902 7.60496 73.1931 7.50878C72.9969 7.31453 72.8859 7.0503 72.8845 6.77422C72.8831 6.49813 72.9914 6.2328 73.1857 6.0366C73.3799 5.84041 73.6442 5.72941 73.9203 5.72803H73.9307C74.2067 5.72803 74.4715 5.8377 74.6668 6.03292C74.862 6.22815 74.9716 6.49292 74.9716 6.76901C74.9716 7.0451 74.862 7.30988 74.6668 7.5051C74.4715 7.70032 74.2067 7.80999 73.9307 7.80999Z" fill="#493A65"/>
<path d="M97.8733 26.5478C97.7366 26.5485 97.6011 26.5222 97.4745 26.4705C97.348 26.4189 97.2328 26.3428 97.1357 26.2466C96.9395 26.0523 96.8285 25.7881 96.8271 25.512C96.8257 25.2359 96.9341 24.9706 97.1283 24.7744C97.3226 24.5782 97.5868 24.4672 97.8629 24.4658H97.8733C98.1494 24.4658 98.4142 24.5755 98.6094 24.7707C98.8046 24.9659 98.9143 25.2307 98.9143 25.5068C98.9143 25.7829 98.8046 26.0477 98.6094 26.2429C98.4142 26.4381 98.1494 26.5478 97.8733 26.5478Z" fill="#493A65"/>
<path d="M97.8733 23.4247C97.7366 23.4254 97.6011 23.3992 97.4745 23.3475C97.348 23.2958 97.2328 23.2197 97.1357 23.1235C96.9395 22.9293 96.8285 22.665 96.8271 22.389C96.8257 22.1129 96.9341 21.8475 97.1283 21.6514C97.3226 21.4552 97.5868 21.3442 97.8629 21.3428H97.8733C98.1494 21.3428 98.4142 21.4524 98.6094 21.6477C98.8046 21.8429 98.9143 22.1077 98.9143 22.3838C98.9143 22.6598 98.8046 22.9246 98.6094 23.1198C98.4142 23.3151 98.1494 23.4247 97.8733 23.4247Z" fill="#493A65"/>
<path d="M97.8733 20.3017C97.7366 20.3024 97.6011 20.2761 97.4745 20.2244C97.348 20.1728 97.2328 20.0967 97.1357 20.0005C96.9395 19.8062 96.8285 19.542 96.8271 19.2659C96.8257 18.9898 96.9341 18.7245 97.1283 18.5283C97.3226 18.3321 97.5868 18.2211 97.8629 18.2197H97.8733C98.1494 18.2197 98.4142 18.3294 98.6094 18.5246C98.8046 18.7198 98.9143 18.9846 98.9143 19.2607C98.9143 19.5368 98.8046 19.8016 98.6094 19.9968C98.4142 20.192 98.1494 20.3017 97.8733 20.3017Z" fill="#493A65"/>
<path d="M66.623 35.3958C66.3469 35.3958 66.0821 35.2862 65.8869 35.0909C65.6916 34.8957 65.582 34.6309 65.582 34.3549V15.6172C65.582 15.3411 65.6916 15.0763 65.8869 14.8811C66.0821 14.6858 66.3469 14.5762 66.623 14.5762C66.899 14.5762 67.1638 14.6858 67.359 14.8811C67.5543 15.0763 67.6639 15.3411 67.6639 15.6172V34.3549C67.6639 34.6309 67.5543 34.8957 67.359 35.0909C67.1638 35.2862 66.899 35.3958 66.623 35.3958Z" fill="#493A65"/>
<path d="M74.4303 28.6296C74.1543 28.6295 73.8895 28.5198 73.6944 28.3246L71.0919 25.7221C70.8967 25.5269 70.7871 25.2622 70.7871 24.9861C70.7871 24.7101 70.8967 24.4454 71.0919 24.2501L73.6944 21.6477C73.8907 21.4581 74.1536 21.3531 74.4266 21.3555C74.6995 21.3579 74.9606 21.4674 75.1536 21.6604C75.3466 21.8534 75.4561 22.1145 75.4585 22.3874C75.4609 22.6604 75.3559 22.9233 75.1663 23.1196L73.2998 24.9861L75.1663 26.8526C75.3118 26.9982 75.411 27.1837 75.4511 27.3856C75.4912 27.5875 75.4706 27.7967 75.3919 27.9869C75.3131 28.1771 75.1797 28.3397 75.0086 28.4541C74.8374 28.5684 74.6362 28.6295 74.4303 28.6296Z" fill="#493A65"/>
<path d="M82.7582 28.6296C82.5523 28.6295 82.3511 28.5684 82.18 28.4541C82.0088 28.3397 81.8754 28.1771 81.7967 27.9869C81.7179 27.7967 81.6973 27.5875 81.7374 27.3856C81.7776 27.1837 81.8767 26.9982 82.0222 26.8526L83.8887 24.9861L82.0222 23.1196C81.8326 22.9233 81.7277 22.6604 81.73 22.3874C81.7324 22.1145 81.8419 21.8534 82.0349 21.6604C82.2279 21.4674 82.489 21.3579 82.7619 21.3555C83.0349 21.3531 83.2978 21.4581 83.4942 21.6477L86.0966 24.2501C86.2918 24.4454 86.4014 24.7101 86.4014 24.9861C86.4014 25.2622 86.2918 25.5269 86.0966 25.7221L83.4942 28.3246C83.299 28.5198 83.0343 28.6295 82.7582 28.6296V28.6296Z" fill="#493A65"/>
<path d="M77.5533 28.63C77.3832 28.6301 77.2157 28.5885 77.0654 28.5088C76.9151 28.4291 76.7866 28.3138 76.6911 28.173C76.5957 28.0321 76.5363 27.8701 76.518 27.701C76.4997 27.5318 76.5231 27.3608 76.5862 27.2028L78.6682 21.9979C78.7706 21.7414 78.9707 21.5361 79.2245 21.4272C79.4783 21.3183 79.765 21.3146 80.0215 21.417C80.278 21.5195 80.4832 21.7196 80.5922 21.9734C80.7011 22.2272 80.7048 22.5138 80.6023 22.7703L78.5204 27.9752C78.4431 28.1686 78.3097 28.3343 78.1373 28.451C77.9649 28.5677 77.7615 28.6301 77.5533 28.63V28.63Z" fill="#493A65"/>
<path d="M49.9672 17.6992H46.8443C46.5682 17.6992 46.3034 17.5895 46.1082 17.3943C45.913 17.199 45.8033 16.9343 45.8033 16.6582C45.8033 16.3821 45.913 16.1173 46.1082 15.9221C46.3034 15.7269 46.5682 15.6172 46.8443 15.6172H49.9672C50.2433 15.6172 50.5081 15.7269 50.7033 15.9221C50.8985 16.1173 51.0082 16.3821 51.0082 16.6582C51.0082 16.9343 50.8985 17.199 50.7033 17.3943C50.5081 17.5895 50.2433 17.6992 49.9672 17.6992Z" fill="#493A65"/>
<path d="M56.2131 20.8222H46.8443C46.5682 20.8222 46.3034 20.7125 46.1082 20.5173C45.913 20.3221 45.8033 20.0573 45.8033 19.7812C45.8033 19.5051 45.913 19.2404 46.1082 19.0451C46.3034 18.8499 46.5682 18.7402 46.8443 18.7402H56.2131C56.4892 18.7402 56.754 18.8499 56.9492 19.0451C57.1444 19.2404 57.2541 19.5051 57.2541 19.7812C57.2541 20.0573 57.1444 20.3221 56.9492 20.5173C56.754 20.7125 56.4892 20.8222 56.2131 20.8222Z" fill="#493A65"/>
<path d="M53.0902 26.0273H46.8443C46.5682 26.0273 46.3034 25.9176 46.1082 25.7224C45.913 25.5272 45.8033 25.2624 45.8033 24.9863C45.8033 24.7102 45.913 24.4454 46.1082 24.2502C46.3034 24.055 46.5682 23.9453 46.8443 23.9453H53.0902C53.3663 23.9453 53.631 24.055 53.8263 24.2502C54.0215 24.4454 54.1312 24.7102 54.1312 24.9863C54.1312 25.2624 54.0215 25.5272 53.8263 25.7224C53.631 25.9176 53.3663 26.0273 53.0902 26.0273Z" fill="#493A65"/>
<path d="M49.9672 34.3549H46.8443C46.5682 34.3549 46.3034 34.2452 46.1082 34.05C45.913 33.8548 45.8033 33.59 45.8033 33.3139C45.8033 33.0378 45.913 32.7731 46.1082 32.5778C46.3034 32.3826 46.5682 32.2729 46.8443 32.2729H49.9672C50.2433 32.2729 50.5081 32.3826 50.7033 32.5778C50.8985 32.7731 51.0082 33.0378 51.0082 33.3139C51.0082 33.59 50.8985 33.8548 50.7033 34.05C50.5081 34.2452 50.2433 34.3549 49.9672 34.3549Z" fill="#493A65"/>
<path d="M49.9672 29.1503H46.8443C46.5682 29.1503 46.3034 29.0407 46.1082 28.8454C45.913 28.6502 45.8033 28.3854 45.8033 28.1093C45.8033 27.8333 45.913 27.5685 46.1082 27.3733C46.3034 27.178 46.5682 27.0684 46.8443 27.0684H49.9672C50.2433 27.0684 50.5081 27.178 50.7033 27.3733C50.8985 27.5685 51.0082 27.8333 51.0082 28.1093C51.0082 28.3854 50.8985 28.6502 50.7033 28.8454C50.5081 29.0407 50.2433 29.1503 49.9672 29.1503Z" fill="#493A65"/>
<path d="M56.2131 29.1503H53.0902C52.8141 29.1503 52.5493 29.0407 52.3541 28.8454C52.1589 28.6502 52.0492 28.3854 52.0492 28.1093C52.0492 27.8333 52.1589 27.5685 52.3541 27.3733C52.5493 27.178 52.8141 27.0684 53.0902 27.0684H56.2131C56.4892 27.0684 56.754 27.178 56.9492 27.3733C57.1444 27.5685 57.2541 27.8333 57.2541 28.1093C57.2541 28.3854 57.1444 28.6502 56.9492 28.8454C56.754 29.0407 56.4892 29.1503 56.2131 29.1503Z" fill="#493A65"/>
<path d="M49.2629 64.2632C48.9506 61.8167 46.9727 59.902 44.4744 59.902H32.1908L30.9416 42.6698C34.3768 44.7973 38.2285 45.9673 42.2883 45.9673H50.6162C52.8022 45.9673 54.5719 44.159 54.5719 41.9252C54.5719 39.6914 52.8022 37.8831 50.6162 37.8831H42.2883C39.4776 37.8831 36.8752 37.0322 34.4809 35.543L26.5695 30.2244C25.1121 29.1607 23.2383 28.5225 21.3645 28.5225H19.9072C17.0965 28.5225 14.494 29.7989 12.6203 31.9263C10.8506 34.0538 10.0178 36.9258 10.4342 39.7978L14.3899 65.5397C14.7022 67.8798 16.7842 69.6881 19.0744 69.6881H40.2063L43.017 96.4937C43.3293 99.0466 45.3072 100.855 47.8055 100.855C48.0137 100.855 48.1178 100.855 48.326 100.855C50.9285 100.536 52.8022 98.1956 52.594 95.43L49.2629 64.2632Z" fill="#493A65"/>
<path d="M33.8563 73.7304H17.7211C14.0776 73.7304 11.0588 71.0712 10.5383 67.4545L6.37437 40.0108C6.06207 38.2025 4.50059 37.0324 2.73092 37.2451C0.96125 37.5642 -0.183832 39.1598 0.0243651 40.9681L4.1883 68.4119C5.22928 75.2196 10.9547 80.2191 17.7211 80.2191H33.8563C35.626 80.2191 37.0834 78.7299 37.0834 76.9216C37.0834 75.1133 35.626 73.7304 33.8563 73.7304Z" fill="#493A65"/>
<path d="M95.6908 49.6904H42.0801C40.3104 49.6904 38.8531 51.1796 38.8531 52.9879C38.8531 54.7963 40.3104 56.2854 42.0801 56.2854H69.7703V95.0046H63.3162C61.5465 95.0046 60.0891 96.4938 60.0891 98.3021C60.0891 100.11 61.5465 101.6 63.3162 101.6H95.7949C97.5645 101.6 99.0219 100.11 99.0219 98.3021V52.9879C98.9178 51.1796 97.4604 49.6904 95.6908 49.6904Z" fill="#493A65"/>
<path d="M20.6358 25.4378C26.385 25.4378 31.0457 20.6754 31.0457 14.8007C31.0457 8.92598 26.385 4.16357 20.6358 4.16357C14.8866 4.16357 10.226 8.92598 10.226 14.8007C10.226 20.6754 14.8866 25.4378 20.6358 25.4378Z" fill="#493A65"/>
<defs>
<linearGradient id="paint0_linear" x1="65.4982" y1="99.0521" x2="65.4982" y2="0.843647" gradientUnits="userSpaceOnUse">
<stop stop-color="#0EE09A"/>
<stop offset="1" stop-color="#38AA84" stop-opacity="0"/>
</linearGradient>
<linearGradient id="paint1_linear" x1="65.4982" y1="99.0521" x2="65.4982" y2="0.843647" gradientUnits="userSpaceOnUse">
<stop stop-color="#0EE09A"/>
<stop offset="1" stop-color="white" stop-opacity="0"/>
</linearGradient>
</defs>
</svg>
